<?xml version="1.0" encoding="UTF-8" standalone="no"?>
<!-- Created with Inkscape (http://www.inkscape.org/) -->

<svg
   xmlns:dc="http://purl.org/dc/elements/1.1/"
   xmlns:cc="http://creativecommons.org/ns#"
   xmlns:rdf="http://www.w3.org/1999/02/22-rdf-syntax-ns#"
   xmlns:svg="http://www.w3.org/2000/svg"
   xmlns="http://www.w3.org/2000/svg"
   xmlns:sodipodi="http://sodipodi.sourceforge.net/DTD/sodipodi-0.dtd"
   xmlns:inkscape="http://www.inkscape.org/namespaces/inkscape"
   width="1024px"
   height="768px"
   id="svg2999"
   version="1.1"
   inkscape:version="0.48.4 r9939"
   sodipodi:docname="New document 2">
  <defs
     id="defs3001" />
  <sodipodi:namedview
     id="base"
     pagecolor="#ffffff"
     bordercolor="#666666"
     borderopacity="1.0"
     inkscape:pageopacity="0.0"
     inkscape:pageshadow="2"
     inkscape:zoom="0.5"
     inkscape:cx="512"
     inkscape:cy="382"
     inkscape:current-layer="layer1"
     inkscape:document-units="px"
     showgrid="false"
     inkscape:window-width="1024"
     inkscape:window-height="746"
     inkscape:window-x="3832"
     inkscape:window-y="421"
     inkscape:window-maximized="1" />
  <metadata
     id="metadata3004">
    <rdf:RDF>
      <cc:Work
         rdf:about="">
        <dc:format>image/svg+xml</dc:format>
        <dc:type
           rdf:resource="http://purl.org/dc/dcmitype/StillImage" />
        <dc:title></dc:title>
      </cc:Work>
    </rdf:RDF>
  </metadata>
  <g
     id="layer1"
     inkscape:label="Layer 1"
     inkscape:groupmode="layer">
    <g
       style="font-size:211.67172241px;font-style:normal;font-variant:normal;font-weight:normal;font-stretch:normal;text-align:start;line-height:125%;letter-spacing:0px;word-spacing:0px;writing-mode:lr-tb;text-anchor:start;fill:#000000;fill-opacity:1;stroke:none;font-family:Orbitron;-inkscape-font-specification:Orbitron"
       id="text3007">
      <path
         d="m 119.6454,63.418592 22.8609,0 -55.669763,61.380148 55.463053,61.38661 -22.65419,0 -48.260485,-52.70476 -33.868251,0 0,52.70476 -17.357236,0 0,-162.984902 17.357236,0 0,92.922902 33.868251,0 z"
         style=""
         id="path3012" />
      <path
         d="m 156.58201,186.18535 0,-122.766758 17.35724,0 0,122.766758 z m 0,-162.984902 17.35724,0 0,17.357236 -17.35724,0 z"
         style=""
         id="path3014" />
      <path
         d="m 271.09973,80.775828 -53.12465,0 0,79.796772 c -2e-5,2.25662 0.81067,4.19668 2.43208,5.8202 1.62136,1.62356 3.5625,2.43533 5.82343,2.43531 l 44.86914,0 0,17.35724 -44.86914,0 c -7.20045,0 -13.26934,-2.50529 -18.20669,-7.51587 -4.93738,-5.01057 -7.40606,-11.04285 -7.40605,-18.09688 l 0,-137.372152 17.35723,0 0,40.218144 53.12465,0 z"
         style=""
         id="path3016" />
      <path
         d="m 386.28279,63.418592 c 7.2003,1.23e-4 13.30472,2.504334 18.31327,7.512641 5.00829,5.008537 7.5125,11.039745 7.51264,18.093643 l 0,44.455714 -107.74148,0 0,27.09201 c -2e-5,2.25662 0.81175,4.19668 2.43531,5.8202 1.62351,1.62356 3.56358,2.43533 5.8202,2.43531 l 99.48597,0 0,17.35724 -99.48597,0 c -7.05403,0 -13.08631,-2.50529 -18.09687,-7.51587 -5.01059,-5.01057 -7.51588,-11.04285 -7.51587,-18.09688 l 0,-71.547724 c -1e-5,-7.053898 2.50528,-13.085106 7.51587,-18.093643 5.01056,-5.008307 11.04284,-7.512518 18.09687,-7.512641 z m -81.91557,52.704758 90.17107,0 0,-27.098474 c -1.2e-4,-2.256492 -0.81081,-4.19548 -2.43208,-5.816968 -1.6215,-1.621282 -3.56264,-2.431975 -5.82342,-2.43208 l -73.66006,0 c -2.25662,1.05e-4 -4.19669,0.810798 -5.8202,2.43208 -1.62356,1.621488 -2.43533,3.560476 -2.43531,5.816968 z"
         style=""
         id="path3018" />
      <path
         d="m 596.13934,63.418592 c 7.19594,1.23e-4 13.26375,2.504334 18.20346,7.512641 4.93933,5.008537 7.40909,11.039745 7.40929,18.093643 l 0,97.160474 -17.15053,0 0,-97.160474 c -1.8e-4,-2.256492 -0.8464,-4.19548 -2.53866,-5.816968 -1.69262,-1.621282 -3.66714,-2.431975 -5.92356,-2.43208 l -51.01231,0 c -2.26102,1.05e-4 -4.20216,0.810798 -5.82343,2.43208 -1.6215,1.621488 -2.43219,3.560476 -2.43208,5.816968 l 0,97.160474 -17.57041,0 0,-97.160474 c -9e-5,-2.256492 -0.81186,-4.19548 -2.43531,-5.816968 -1.62363,-1.621282 -3.56369,-2.431975 -5.82019,-2.43208 l -51.22549,0 c -2.25663,1.05e-4 -4.19669,0.810798 -5.8202,2.43208 -1.62357,1.621488 -2.43534,3.560476 -2.43531,5.816968 l 0,97.160474 -17.5704,0 0,-122.766758 z"
         style=""
         id="path3020" />
      <path
         d="m 739.75804,63.418592 c 7.2003,1.23e-4 13.30472,2.504334 18.31327,7.512641 5.00829,5.008537 7.5125,11.039745 7.51264,18.093643 l 0,44.455714 -107.74148,0 0,27.09201 c -2e-5,2.25662 0.81175,4.19668 2.43531,5.8202 1.62351,1.62356 3.56358,2.43533 5.8202,2.43531 l 99.48597,0 0,17.35724 -99.48597,0 c -7.05403,0 -13.08631,-2.50529 -18.09687,-7.51587 -5.01059,-5.01057 -7.51588,-11.04285 -7.51587,-18.09688 l 0,-71.547724 c -10e-6,-7.053898 2.50528,-13.085106 7.51587,-18.093643 5.01056,-5.008307 11.04284,-7.512518 18.09687,-7.512641 z m -81.91557,52.704758 90.17107,0 0,-27.098474 c -1.2e-4,-2.256492 -0.81081,-4.19548 -2.43208,-5.816968 -1.6215,-1.621282 -3.56264,-2.431975 -5.82342,-2.43208 l -73.66006,0 c -2.25662,1.05e-4 -4.19669,0.810798 -5.8202,2.43208 -1.62356,1.621488 -2.43533,3.560476 -2.43531,5.816968 z"
         style=""
         id="path3022" />
      <path
         d="m 886.10917,63.418592 c 7.20031,1.23e-4 13.30472,2.504334 18.31327,7.512641 5.0083,5.008537 7.51251,11.039745 7.51265,18.093643 l 0,44.455714 -107.74148,0 0,27.09201 c -3e-5,2.25662 0.81174,4.19668 2.43531,5.8202 1.62351,1.62356 3.56357,2.43533 5.8202,2.43531 l 99.48597,0 0,17.35724 -99.48597,0 c -7.05403,0 -13.08632,-2.50529 -18.09688,-7.51587 -5.01059,-5.01057 -7.51588,-11.04285 -7.51587,-18.09688 l 0,-71.547724 c -10e-6,-7.053898 2.50528,-13.085106 7.51587,-18.093643 5.01056,-5.008307 11.04285,-7.512518 18.09688,-7.512641 z m -81.91556,52.704758 90.17107,0 0,-27.098474 c -1.2e-4,-2.256492 -0.81081,-4.19548 -2.43208,-5.816968 -1.6215,-1.621282 -3.56264,-2.431975 -5.82343,-2.43208 l -73.66005,0 c -2.25663,1.05e-4 -4.19669,0.810798 -5.8202,2.43208 -1.62357,1.621488 -2.43534,3.560476 -2.43531,5.816968 z"
         style=""
         id="path3024" />
      <path
         d="m 1004.0957,80.775828 -53.12461,0 0,79.796772 c -3e-5,2.25662 0.81066,4.19668 2.43208,5.8202 1.62135,1.62356 3.56249,2.43533 5.82342,2.43531 l 44.86911,0 0,17.35724 -44.86911,0 c -7.20045,0 -13.26934,-2.50529 -18.20668,-7.51587 -4.93739,-5.01057 -7.40607,-11.04285 -7.40606,-18.09688 l 0,-137.372152 17.35724,0 0,40.218144 53.12461,0 z"
         style=""
         id="path3026" />
    </g>
  </g>
</svg>
